<?xml version="1.0" standalone="no"?>
<svg version="1.1" id="Layer_1_99_" xmlns="http://www.w3.org/2000/svg" xmlns:xlink="http://www.w3.org/1999/xlink" x="0px" y="0px" viewBox="0 0 595.276 595.276" enable-background="new 0 0 595.276 595.276" xml:space="preserve">
<path id="color_x5F_7" fill-rule="evenodd" clip-rule="evenodd" fill="#7ed321" d="M96.342,432.956
	c4.257,0.073,8.191,1.663,11.287,4.257c-2.984,3.521-7.268,5.941-12.227,6.365c-4.961,0.423-9.594-1.233-13.133-4.196
	c2.984-3.522,7.27-5.941,12.229-6.364C95.118,432.965,95.734,432.946,96.342,432.956L96.342,432.956z M505.136,430.423
	c0.608-0.011,1.224,0.01,1.844,0.062c4.959,0.424,9.243,2.845,12.227,6.365c-3.539,2.963-8.172,4.618-13.131,4.195
	c-4.959-0.423-9.245-2.843-12.229-6.364C496.943,432.087,500.878,430.496,505.136,430.423L505.136,430.423z M121.044,414.19
	c1.27,4.438,0.899,9.345-1.504,13.704c-2.403,4.361-6.354,7.294-10.785,8.589c-1.27-4.438-0.899-9.344,1.504-13.703
	C112.661,418.419,116.612,415.486,121.044,414.19z M480.434,411.658c4.431,1.294,8.382,4.228,10.785,8.589
	c2.403,4.36,2.773,9.267,1.502,13.704c-4.43-1.296-8.381-4.23-10.784-8.59C479.534,421.002,479.162,416.096,480.434,411.658z
	 M518.873,414.481c4.257,0.144,8.165,1.801,11.218,4.446c-3.041,3.473-7.368,5.819-12.334,6.161
	c-4.96,0.342-9.558-1.386-13.047-4.401c0.179-0.196,0.36-0.392,0.54-0.587c3.004-3.146,7.099-5.262,11.779-5.585
	C517.65,414.471,518.265,414.46,518.873,414.481L518.873,414.481z M502.688,394.544c3.407,3.115,5.664,7.488,5.901,12.46
	c0.237,4.973-1.592,9.541-4.687,12.966c-3.407-3.115-5.662-7.489-5.9-12.462C497.766,402.567,499.571,398.023,502.688,394.544
	L502.688,394.544z M471.578,394.102c4.258,0.099,8.183,1.715,11.264,4.327c-3.006,3.503-7.306,5.896-12.269,6.289
	c-4.962,0.394-9.586-1.291-13.107-4.277c3.006-3.504,7.306-5.896,12.269-6.289C470.356,394.103,470.97,394.087,471.578,394.102
	L471.578,394.102L471.578,394.102z M443.352,377.943c4.469,1.159,8.509,3.968,11.045,8.252c2.537,4.283,3.058,9.176,1.926,13.651
	c-4.468-1.159-8.509-3.969-11.046-8.252C442.741,387.312,442.219,382.418,443.352,377.943L443.352,377.943z M479.464,375.606
	c0.608-0.01,1.224,0.009,1.844,0.063c4.959,0.424,9.247,2.842,12.231,6.363c-3.539,2.964-8.174,4.62-13.135,4.196
	c-4.96-0.424-9.245-2.842-12.229-6.363C471.27,377.271,475.205,375.679,479.464,375.606L479.464,375.606z M454.761,356.84
	c4.432,1.294,8.383,4.229,10.786,8.59c2.403,4.361,2.775,9.268,1.504,13.705c-4.432-1.294-8.383-4.23-10.786-8.589
	C453.862,366.186,453.492,361.279,454.761,356.84L454.761,356.84z M492.085,370.271c-4.959,0.343-9.557-1.385-13.044-4.399
	c0.287-0.315,0.588-0.629,0.882-0.944c2.969-2.951,6.933-4.92,11.435-5.231c0.621-0.043,1.236-0.053,1.844-0.033l0,0
	c4.256,0.143,8.165,1.8,11.218,4.444c-3.041,3.473-7.366,5.821-12.333,6.163L492.085,370.271L492.085,370.271z M477.018,339.726
	c3.406,3.115,5.662,7.489,5.899,12.462c0.237,4.972-1.593,9.54-4.688,12.964c-3.407-3.114-5.66-7.488-5.899-12.459v-0.002
	C472.093,347.718,473.923,343.151,477.018,339.726L477.018,339.726z M160.039,238.478l-4.527,0.589
	c-0.248,0.032-0.434,0.246-0.434,0.495c0,0.029,0.002,0.058,0.007,0.086c0.81,4.562-0.147,8.91-3.862,13.142
	c-0.07,0.08-0.113,0.18-0.123,0.285c-3.804,24.763-7.744,40.475-14.974,47.571c-5.475,5.141-13.946,5.286-19.593,0.334
	c-5.648-4.953-6.612-13.374-2.228-19.474c1.11-1.544,2.007-2.793,2.513-3.498c0.297-0.412,0.606-0.814,0.929-1.206
	c0,0,0-0.001,0-0.002c4.803-5.854,7.716-13.028,8.353-20.572c0.274-3.241,0.559-6.607,0.784-9.267
	c0.266-3.145,1.751-6.062,4.14-8.125c1.813-1.566,3.578-3.089,3.578-3.089c0.018-0.017,0.035-0.034,0.05-0.053
	c0,0,0.34-0.393,0.878-1.019c3.773-4.378,9.199-6.919,14.902-7.071l0,0c0.815-0.021,1.634,0.005,2.456,0.082
	c2.612,0.247,5.458,0.516,8.244,0.779c3.636,0.343,6.919,2.315,8.927,5.364c2.009,3.05,2.525,6.844,1.406,10.319
	c-1.007,3.124-1.455,4.52-1.832,5.688c-0.293-1.683-0.603-3.466-0.859-4.931c-0.718-4.13-4.574-6.969-8.731-6.428L160.039,238.478
	L160.039,238.478z"></path>
<path id="color_x5F_6" fill-rule="evenodd" clip-rule="evenodd" fill="#000000" d="M154.205,362.958
	c0.028,0.515,0.342,6.146,0.635,11.382c0.286,5.079,1.803,10.009,4.423,14.368l3.817,6.352l-4.865,50.234
	c-0.001,0.016-0.002,0.032-0.002,0.048c0,0.428-0.022,0.859-0.066,1.293c0,0.001,0,0.002,0,0.002
	c-0.079,0.787-0.228,1.547-0.439,2.28c-0.004,0.015-0.007,0.03-0.01,0.045l-6.212,32.252l-5.297,6.332c0,0-3.626,4.334-6.447,7.708
	c-1.979,2.364-1.665,5.9,0.7,7.879c1.645,1.375,3.78,3.161,5.874,4.912l-2.425,12.598l-18.793-1.895l3.76-37.351
	c0.015-0.053,0.021-0.109,0.018-0.164l3.637-36.106c0.004-0.041,0.003-0.083-0.002-0.124l-7.189-49.184
	c-1.511-10.335-0.567-20.88,2.749-30.783L154.205,362.958L154.205,362.958z M190.416,360.072l26.164,72.311
	c0.008,0.022,0.018,0.043,0.029,0.064c2.367,4.472,1.951,10.121-1.496,14.243c-0.507,0.606-1.058,1.155-1.645,1.643
	c-0.011,0.009-0.022,0.019-0.033,0.029l-51.671,51.562l-14.49-12.12l42.084-50.31c0.136-0.163,0.154-0.396,0.045-0.577
	l-29.283-48.724c-2.536-4.221-4.005-8.993-4.282-13.909c-0.294-5.248-0.61-10.913-0.637-11.406L190.416,360.072L190.416,360.072z
	 M367.711,472.779h-34.89c-2.136,0-3.862-1.724-3.862-3.86v-34.89c0-2.136,1.726-3.862,3.862-3.862h34.89
	c2.137,0,3.862,1.726,3.862,3.862v34.89C371.573,471.055,369.848,472.779,367.711,472.779z M367.711,306.708
	c2.137,0,3.862,1.724,3.862,3.86v34.89c0,2.136-1.725,3.861-3.862,3.862h-34.889c-2.136,0-3.861-1.726-3.861-3.862v-34.89
	c0-2.136,1.725-3.86,3.861-3.86H367.711z M241.813,242.93h25.506c2.137,0,3.863,1.724,3.863,3.86v34.89
	c0,2.136-1.726,3.862-3.863,3.862H232.43c-2.137,0-3.86-1.725-3.86-3.862v-6.937l0.684-0.472l4.202-2.898
	c0.054-0.038,0.1-0.087,0.135-0.143c0.001-0.001,0.001-0.001,0.002-0.002c2.142-1.539,3.742-3.853,4.255-6.65L241.813,242.93
	L241.813,242.93L241.813,242.93L241.813,242.93L241.813,242.93z M317.516,221.762h-34.889c-2.137,0-3.863-1.724-3.863-3.86v-34.89
	c0-2.106,1.678-3.813,3.863-3.862h34.889c2.135,0,3.861,1.726,3.861,3.862v34.89C321.377,220.038,319.652,221.762,317.516,221.762
	L317.516,221.762z"></path>
<path id="color_x5F_5" fill-rule="evenodd" clip-rule="evenodd" fill="#FFD2BB" d="M232.43,178.151
	c-2.678,0-4.859,2.184-4.859,4.861v17.321c-1.082-0.318-2.295-0.129-3.241,0.622c-1.544,1.225-1.805,3.485-0.579,5.029l4.238,5.344
	l-9.887,44.702l-5.759,3.541V146.937c0-2.828,2.258-5.113,5.164-5.162h34.49c0.271,9.105,7.702,16.425,16.871,16.425h62.407
	c9.169,0,16.601-7.32,16.871-16.425h34.488c2.857,0,5.163,2.304,5.163,5.162v340.724c0,2.858-2.305,5.164-5.163,5.164H217.506
	c-2.857,0-5.164-2.306-5.164-5.164v-36.798l1.797-1.793c0.621-0.519,1.205-1.098,1.741-1.739c3.699-4.424,4.16-10.495,1.63-15.311
	l-5.168-14.283V285.945l15.228-10.512v6.246c0,2.678,2.181,4.861,4.859,4.861h34.889c2.678,0,4.862-2.183,4.862-4.861v-34.89
	c0-2.677-2.184-4.859-4.862-4.859h-25.322c1.322-7.216,1.954-10.661,3.514-19.17h21.808c2.678,0,4.862-2.182,4.862-4.859v-34.89
	c0-2.677-2.184-4.861-4.862-4.861L232.43,178.151L232.43,178.151z M317.516,429.168h-34.889c-2.678,0-4.862,2.184-4.862,4.861v34.89
	c0,2.677,2.184,4.859,4.862,4.859h34.889c2.677,0,4.86-2.181,4.86-4.859v-34.89C322.376,431.352,320.193,429.168,317.516,429.168z
	 M267.319,429.168H232.43c-2.678,0-4.859,2.184-4.859,4.861v34.89c0,2.677,2.181,4.859,4.859,4.859h34.889
	c2.678,0,4.862-2.182,4.862-4.859v-34.89C272.181,431.352,269.997,429.168,267.319,429.168z M367.711,429.168h-34.89
	c-2.677,0-4.861,2.184-4.861,4.861v34.89c0,2.678,2.184,4.859,4.861,4.859h34.89c2.678,0,4.861-2.181,4.861-4.859v-34.89
	C372.572,431.352,370.389,429.168,367.711,429.168z M93.691,346.622l17.97,6.533l-18.905,46.65
	c-0.057,0.139-0.047,0.297,0.025,0.428l3.405,6.182c0.689,1.253,0.235,2.82-1.019,3.509c-1.252,0.69-2.816,0.236-3.506-1.018
	l-0.989-1.795c-0.088-0.159-0.256-0.257-0.436-0.257c-0.203,0-0.387,0.124-0.462,0.312l-2.341,5.776
	c-0.759,1.873-2.855,2.806-4.754,2.114c-2.198-0.799-4.986-1.812-7.391-2.686c-2.686-0.977-4.064-3.932-3.088-6.617
	C77.793,390.363,93.442,347.305,93.691,346.622L93.691,346.622z M317.516,305.709h-34.889c-2.678,0-4.862,2.182-4.862,4.859v34.89
	c0,2.677,2.184,4.861,4.862,4.861h34.889c2.677,0,4.86-2.184,4.86-4.861v-34.89C322.376,307.891,320.193,305.709,317.516,305.709z
	 M267.319,305.709H232.43c-2.678,0-4.859,2.182-4.859,4.859v34.89c0,2.677,2.181,4.861,4.859,4.861h34.889
	c2.678,0,4.862-2.184,4.862-4.861v-34.89C272.181,307.892,269.997,305.709,267.319,305.709z M367.711,305.709h-34.89
	c-2.677,0-4.861,2.181-4.861,4.859v34.89c0,2.677,2.184,4.861,4.861,4.861h34.89c2.678,0,4.861-2.184,4.861-4.861v-34.89
	C372.572,307.891,370.389,305.709,367.711,305.709z M317.516,241.931h-34.889c-2.678,0-4.862,2.182-4.862,4.859v34.89
	c0,2.678,2.184,4.861,4.862,4.861h34.889c2.677,0,4.86-2.183,4.86-4.861v-34.89C322.376,244.113,320.193,241.931,317.516,241.931z
	 M367.711,241.931h-34.89c-2.677,0-4.861,2.182-4.861,4.859v34.89c0,2.678,2.184,4.861,4.861,4.861h34.89
	c2.678,0,4.861-2.183,4.861-4.861v-34.89C372.572,244.113,370.389,241.931,367.711,241.931z M160.849,239.415
	c3.368-0.107,6.35,2.272,6.941,5.661c0.923,5.308,2.188,12.591,3.105,17.862c0.452,2.594-0.203,5.259-1.806,7.345
	c-1.602,2.087-4.005,3.408-6.627,3.642c-6.552,0.585-8.517,0.368-8.517,0.368c-0.021-0.003-0.042-0.004-0.063-0.004
	c-0.275,0-0.499,0.225-0.499,0.499c0,0.257,0.199,0.474,0.454,0.497c0,0,2.011,0.171,7.655-0.287l0.923,8.167l-16.761,1.354
	c2.486-8.085,4.457-18.446,6.416-31.185c3.663-4.233,4.717-8.75,4.036-13.337c0.373-0.049,1.897-0.247,4.063-0.529
	C160.398,239.44,160.625,239.422,160.849,239.415L160.849,239.415L160.849,239.415z M235.672,194.531
	c0.244-0.004,0.49,0.017,0.739,0.063c2.3,0.421,5.218,0.957,7.735,1.418c2.811,0.514,4.662,3.197,4.148,6.008
	c-2.974,16.236-11.43,62.377-11.43,62.377c-0.475,2.601-1.962,4.759-3.977,6.152c-0.014,0.009-0.027,0.018-0.039,0.029l-3.722,2.569
	l-10.05-16.887l9.941-44.947c0.032-0.147-0.004-0.301-0.098-0.417l-4.385-5.53c-0.89-1.121-0.703-2.738,0.417-3.627
	c1.12-0.89,2.74-0.703,3.628,0.417l1.272,1.603c0.095,0.121,0.239,0.191,0.393,0.191c0.233,0,0.436-0.164,0.487-0.392l1.345-6.086
	C232.459,195.744,233.969,194.557,235.672,194.531L235.672,194.531L235.672,194.531z M282.627,178.151
	c-2.678,0-4.862,2.183-4.862,4.861v34.89c0,2.677,2.184,4.859,4.862,4.859h34.889c2.677,0,4.86-2.182,4.86-4.859v-34.89
	c0-2.678-2.183-4.861-4.86-4.861L282.627,178.151L282.627,178.151z M332.821,178.151c-2.677,0-4.861,2.183-4.861,4.861v34.89
	c0,2.677,2.184,4.859,4.861,4.859h34.89c2.678,0,4.861-2.182,4.861-4.859v-34.89c0-2.678-2.183-4.861-4.861-4.861L332.821,178.151
	L332.821,178.151z"></path>
<path id="color_x5F_4" fill-rule="evenodd" clip-rule="evenodd" fill="#f5a623" d="M195.363,480.769h-12.991l12.991-12.964
	V480.769z M127.92,480.769H79.336c0.268-16.341,13.599-29.517,30.005-29.517c2.315,0,4.566,0.265,6.732,0.761
	c0.043,0.018,0.088,0.03,0.135,0.035c0.202,0.057,4.1,1.187,6.749,4.276c0.095,0.111,0.234,0.175,0.38,0.175
	c0.275,0,0.499-0.225,0.499-0.499c0-0.119-0.042-0.234-0.12-0.325c-2.452-2.86-5.713-4.093-6.816-4.452
	c2.254-6.933,6.967-12.759,13.107-16.455l0,0l1.508,10.319L127.92,480.769L127.92,480.769z M521.169,480.769h-88.104v-81.094
	c10.748,4.566,18.308,15.206,18.312,27.616l-0.125,2.444c-1.065,0.129-5.528,0.842-8.673,4.376c-0.092,0.094-0.144,0.22-0.144,0.351
	c0,0.275,0.226,0.499,0.499,0.499c0.152,0,0.295-0.069,0.39-0.187c3.232-3.632,8.385-4.098,8.432-4.102
	c0.011,0,0.022-0.001,0.033-0.002c1.072-0.127,2.162-0.188,3.269-0.188c13.316,0,24.597,8.694,28.518,20.708
	c0.004,0.018,0.008,0.037,0.014,0.054c-1.211,0.353-5.134,1.69-7.949,5.168c-0.076,0.091-0.118,0.205-0.118,0.323
	c0,0.274,0.226,0.499,0.499,0.499c0.154,0,0.3-0.072,0.395-0.194c3.072-3.794,7.921-4.977,7.933-4.98
	c0.002-0.001,0.003-0.001,0.004-0.002c0.002,0,0.003,0,0.004,0c2.17-0.535,4.456-0.806,6.807-0.806
	C507.57,451.252,520.901,464.428,521.169,480.769L521.169,480.769z M169.755,413.658L169.755,413.658L169.755,413.658
	L169.755,413.658c1.653,0,3.262,0.181,4.814,0.516l13.794,22.951l-35.555,42.506l5.87-30.48c0.222-0.778,0.381-1.583,0.464-2.415
	c0.046-0.452,0.067-0.901,0.068-1.346l2.944-30.414C164.532,414.129,167.086,413.658,169.755,413.658L169.755,413.658z
	 M317.516,472.779h-34.889c-2.137,0-3.863-1.724-3.863-3.86v-34.89c0-2.136,1.726-3.862,3.863-3.862h34.889
	c2.136,0,3.861,1.726,3.861,3.862v34.89C321.377,471.055,319.652,472.779,317.516,472.779z M111.946,296.393
	c0.89,1.987,2.194,3.819,3.927,5.339c2.583,2.265,5.725,3.525,8.932,3.8l1.937,12.086l-14.696,34.613l-18.016-6.547L111.946,296.393
	z M267.319,349.32H232.43c-2.136,0-3.86-1.726-3.86-3.862v-34.89c0-2.137,1.723-3.86,3.86-3.86h34.889
	c2.137,0,3.863,1.723,3.863,3.86v34.89C271.182,347.594,269.456,349.32,267.319,349.32z M218.375,257.035l9.927,16.679
	l-40.57,28.006c-5.011,3.459-11.874,2.201-15.333-2.81c-3.459-5.011-2.201-11.876,2.81-15.335c0.327-0.225,0.664-0.431,1.007-0.618
	c0.007-0.004,0.014-0.009,0.021-0.013L218.375,257.035L218.375,257.035z M317.516,242.93c2.137,0,3.862,1.724,3.862,3.86v34.89
	c0,2.136-1.725,3.862-3.862,3.862h-34.889c-2.137,0-3.863-1.726-3.863-3.862v-34.89c0-2.136,1.726-3.86,3.863-3.86H317.516z
	 M367.711,221.762h-34.89c-2.136,0-3.862-1.724-3.862-3.86v-34.89c0-2.106,1.678-3.813,3.862-3.862h34.89
	c2.136,0,3.862,1.726,3.862,3.862v34.89C371.573,220.038,369.848,221.762,367.711,221.762L367.711,221.762z"></path>
<path id="color_x5F_3" fill-rule="evenodd" clip-rule="evenodd" fill="#f5a623" d="M409.915,508.805h-20.023
	c8.624-2.741,14.884-10.819,14.884-20.342V146.135c0-9.522-6.26-17.6-14.884-20.34h20.023c5.875,0,11.508,2.333,15.663,6.488
	c4.154,4.154,6.488,9.786,6.488,15.661v333.245c-0.009,0.054-0.009,0.108,0,0.162v5.305c0,5.874-2.334,11.508-6.488,15.662
	C421.423,506.472,415.79,508.805,409.915,508.805z M174.018,283.233c-4.924,3.893-6.058,11.007-2.442,16.245
	c2.562,3.711,6.852,5.528,11.052,5.129l7.563,54.485l-61.794,4.918l4.456-14.241c0.022-0.074,0.028-0.152,0.015-0.229l-7.042-43.962
	c3.948,0.08,7.914-1.318,10.989-4.206c0.003-0.003,0.006-0.005,0.008-0.008c3.524-3.456,6.231-8.725,8.508-15.817L174.018,283.233
	L174.018,283.233z M419.431,235.844h-0.002c-3.209,0-5.821,2.611-5.821,5.82v28.726c0,3.209,2.612,5.821,5.821,5.821h0.002
	c3.21,0,5.822-2.612,5.822-5.821v-28.726C425.253,238.455,422.641,235.844,419.431,235.844z M419.431,190.131h-0.002
	c-3.209,0-5.821,2.613-5.821,5.821v28.725c0,3.208,2.612,5.821,5.821,5.821h0.002c3.21,0,5.822-2.613,5.822-5.821v-28.725
	C425.253,192.744,422.641,190.131,419.431,190.131z M324.346,145.9H276.57c-1.145,0-2.061-0.916-2.061-2.061v-0.002
	c0-1.145,0.917-2.061,2.061-2.061h47.776c1.145,0,2.062,0.917,2.062,2.061v0.002C326.408,144.984,325.49,145.9,324.346,145.9z"></path>
<path id="color_x5F_2" fill-rule="evenodd" clip-rule="evenodd" fill="#ffb700" d="M124.996,519.742l19.052,1.919
	c0.193,0.227,6.04,7.062,7.9,9.239c0.262,0.307,0.388,0.707,0.347,1.107c-0.002,0.015-0.003,0.03-0.004,0.045l0.002-0.043
	c-0.259,2.574-2.543,4.442-5.119,4.182c-5.357-0.539-13.695-1.38-19.023-1.918c-2.531-0.255-4.366-2.501-4.111-5.031
	c0.419-4.158,0.904-8.984,0.956-9.5L124.996,519.742L124.996,519.742z M146.634,488.569l14.684,12.281
	c0.032,0.293,1.033,9.239,1.351,12.085c0.045,0.4-0.075,0.801-0.334,1.11c-0.001,0.001-0.001,0.002-0.002,0.002
	c-1.659,1.986-4.599,2.245-6.584,0.585c-4.131-3.455-10.558-8.83-14.665-12.266c-1.952-1.633-2.209-4.523-0.577-6.472
	C143.188,492.687,146.302,488.964,146.634,488.569L146.634,488.569z M217.506,140.777c-3.397,0-6.162,2.764-6.162,6.161v113.248
	l-14.982,9.212V146.135c0-11.231,9.11-20.34,20.343-20.34h166.73c11.232,0,20.342,9.109,20.342,20.34v342.328
	c0,11.232-9.11,20.342-20.342,20.342h-166.73c-11.233,0-20.343-9.109-20.343-20.342v-21.656l14.982-14.948v35.801
	c0,3.398,2.766,6.163,6.162,6.163h165.128c3.397,0,6.161-2.765,6.161-6.163V146.937c0-3.397-2.765-6.161-6.161-6.161h-34.937
	c-0.274,0-0.499,0.226-0.499,0.499c0,8.8-7.123,15.926-15.924,15.926h-62.407c-8.801,0-15.924-7.124-15.924-15.926
	c0-0.274-0.226-0.499-0.499-0.499L217.506,140.777L217.506,140.777z M267.319,472.779H232.43c-2.137,0-3.86-1.724-3.86-3.86v-34.89
	c0-2.136,1.723-3.862,3.86-3.862h34.889c2.137,0,3.863,1.726,3.863,3.862v34.89C271.182,471.055,269.456,472.779,267.319,472.779z
	 M211.344,286.634v128.342l-14.982-41.411v-76.589L211.344,286.634L211.344,286.634z M317.516,306.708
	c2.137,0,3.862,1.724,3.862,3.86v34.89c0,2.136-1.725,3.862-3.862,3.862h-34.889c-2.137,0-3.863-1.726-3.863-3.862v-34.89
	c0-2.136,1.726-3.86,3.863-3.86H317.516z M367.711,242.93c2.185,0.049,3.862,1.754,3.862,3.86v34.89
	c0,2.136-1.725,3.862-3.862,3.862h-34.889c-2.136,0-3.861-1.726-3.861-3.862v-34.89c0-2.136,1.725-3.86,3.861-3.86H367.711z
	 M419.431,275.212h-0.002c-2.669,0-4.822-2.152-4.822-4.822v-28.726c0-2.67,2.153-4.821,4.822-4.821h0.002
	c2.67,0,4.823,2.151,4.823,4.821v28.726C424.254,273.06,422.101,275.212,419.431,275.212z M419.431,229.499h-0.002
	c-2.669,0-4.822-2.153-4.822-4.822v-28.725c0-2.669,2.153-4.822,4.822-4.822h0.002c2.67,0,4.823,2.153,4.823,4.822v28.725
	C424.254,227.346,422.101,229.499,419.431,229.499z M267.319,221.762h-21.626c1.581-8.628,2.651-14.47,3.584-19.562
	c0.612-3.342-1.609-6.559-4.951-7.171c-2.517-0.461-5.434-0.995-7.735-1.416c-2.507-0.458-4.939,1.154-5.489,3.643l-1.12,5.062
	l-0.62-0.782c0-0.001,0-0.001,0-0.002c-0.229-0.289-0.503-0.516-0.792-0.714v-17.806c0-2.137,1.724-3.862,3.86-3.862l0,0h34.889
	c2.137,0,3.863,1.726,3.863,3.862v34.89C271.182,220.038,269.456,221.762,267.319,221.762z M512.156,199.697H496.32
	c0.273-4.164,3.627-7.481,7.917-7.52C508.492,192.177,511.884,195.511,512.156,199.697z M486.247,199.697h-53.181v-24.162
	c1.933-0.471,3.948-0.732,6.028-0.732c10.199,0,18.997,6.024,23.034,14.699c0.082,0.176,0.26,0.288,0.452,0.288
	c0.123,0,0.241-0.045,0.333-0.126c2.481-2.201,5.74-3.535,9.317-3.535C479.827,186.13,485.977,192.165,486.247,199.697
	L486.247,199.697z M324.346,140.777H276.57c-1.684,0-3.06,1.376-3.06,3.06v0.002c0,1.684,1.376,3.059,3.06,3.059h47.776
	c1.684,0,3.061-1.375,3.061-3.059v-0.002C327.407,142.153,326.03,140.777,324.346,140.777z M253.81,89.313h-72.498
	c0.273-12.727,10.634-22.976,23.425-22.976c10.32,0,19.086,6.669,22.225,15.927c0.069,0.201,0.26,0.337,0.472,0.337
	c0.172,0,0.332-0.088,0.423-0.234c2.481-3.976,6.9-6.625,11.936-6.625C247.39,75.742,253.539,81.775,253.81,89.313L253.81,89.313z
	 M168.952,89.313h-20.097c0.273-5.331,4.567-9.601,10.049-9.652C164.331,79.661,168.673,83.945,168.952,89.313z"></path>
<path id="color_x5F_1" fill="#0984E3" d="M335.545,56.837c-0.542,0.009-0.983,0.457-0.983,0.999c0,0.006,0,0.011,0,0.016v7.352
	c0,0.005,0,0.01,0,0.015c0,0.547,0.45,0.999,0.999,0.999c0.547,0,0.999-0.451,0.999-0.999c0-0.005,0-0.01,0-0.015v-7.352
	c0-0.005,0-0.01,0-0.016c0-0.547-0.451-0.999-0.999-0.999C335.555,56.837,335.55,56.837,335.545,56.837z M322.945,62.064
	c-0.547,0.001-0.997,0.451-0.997,0.999c0,0.27,0.109,0.527,0.302,0.716l5.2,5.201c0.188,0.196,0.448,0.307,0.72,0.307
	c0.548,0,0.999-0.45,0.999-0.999c0-0.272-0.111-0.532-0.307-0.72l-5.199-5.201C323.475,62.172,323.215,62.063,322.945,62.064
	L322.945,62.064z M348.147,62.064c-0.259,0.008-0.505,0.116-0.686,0.303l-5.201,5.201c-0.197,0.188-0.308,0.448-0.308,0.72
	c0,0.548,0.451,0.999,0.999,0.999c0.272,0,0.532-0.111,0.721-0.307l5.201-5.201c0.193-0.189,0.303-0.446,0.303-0.717
	c0-0.547-0.451-0.999-0.999-0.999C348.167,62.063,348.157,62.064,348.147,62.064L348.147,62.064z M204.737,64.843
	c-13.772,0-24.974,11.2-24.974,24.974c0,0.548,0.451,0.999,0.999,0.999h73.598c0.547,0,0.999-0.451,0.999-0.999
	c0-0.001,0-0.001,0-0.002c-0.003-8.587-6.988-15.567-15.565-15.567c-4.926,0-9.24,2.375-12.091,5.958
	C223.931,71.201,215.093,64.843,204.737,64.843z M204.737,66.841c10.105,0,18.679,6.527,21.752,15.587
	c0.137,0.404,0.518,0.677,0.946,0.677c0.344,0,0.664-0.178,0.846-0.469c2.394-3.834,6.653-6.39,11.514-6.39
	c7.155,0,12.944,5.543,13.466,12.573h-24.55h-46.847C182.396,76.6,192.388,66.841,204.737,66.841L204.737,66.841z M317.735,74.679
	c-0.005,0-0.009,0-0.014,0c-0.548,0-0.999,0.45-0.999,0.999c0,0.547,0.45,0.999,0.999,0.999c0.005,0,0.009,0,0.014,0h7.354
	c0.005,0,0.01,0,0.014,0c0.548,0,1-0.451,1-0.999c0-0.548-0.451-0.999-1-0.999c-0.004,0-0.009,0-0.014,0H317.735z M346.032,74.679
	c-0.005,0-0.009,0-0.014,0c-0.548,0-0.999,0.45-0.999,0.999c0,0.547,0.45,0.999,0.999,0.999c0.005,0,0.009,0,0.014,0h7.354
	c0.005,0,0.01,0,0.014,0c0.548,0,1-0.451,1-0.999c0-0.548-0.451-0.999-1-0.999c-0.004,0-0.009,0-0.014,0H346.032z M158.905,78.167
	c-6.418,0-11.649,5.231-11.649,11.65c0.001,0.548,0.451,0.999,0.999,0.999h21.299c0.547,0,0.999-0.451,0.999-0.999
	c0-0.001,0-0.001,0-0.002C170.546,83.391,165.319,78.167,158.905,78.167z M158.905,80.164c4.979,0,8.922,3.804,9.448,8.653h-18.897
	C149.976,83.975,153.923,80.164,158.905,80.164z M342.956,82.072c-0.001,0-0.001,0-0.002,0c-0.547,0-0.999,0.45-0.999,0.999
	c0,0.271,0.11,0.529,0.305,0.718l5.201,5.201c0.188,0.196,0.448,0.307,0.72,0.307c0.548,0,0.999-0.45,0.999-0.999
	c0-0.272-0.111-0.532-0.307-0.72l-5.201-5.201C343.484,82.183,343.226,82.073,342.956,82.072L342.956,82.072z M328.136,82.074
	c-0.26,0.008-0.505,0.116-0.686,0.303l-5.2,5.201c-0.196,0.188-0.307,0.448-0.307,0.72c0,0.548,0.45,0.999,0.999,0.999
	c0.272,0,0.532-0.111,0.721-0.307l5.199-5.201c0.193-0.188,0.303-0.446,0.303-0.716c0-0.548-0.451-0.999-0.999-0.999
	C328.156,82.074,328.146,82.074,328.136,82.074L328.136,82.074z M335.545,85.136c-0.542,0.009-0.983,0.457-0.983,0.999
	c0,0.006,0,0.011,0,0.016v7.352c0,0.005,0,0.01,0,0.015c0,0.547,0.45,0.999,0.999,0.999c0.547,0,0.999-0.451,0.999-0.999
	c0-0.005,0-0.01,0-0.015v-7.352c0-0.005,0-0.01,0-0.016c0-0.547-0.451-0.999-0.999-0.999
	C335.555,85.136,335.55,85.136,335.545,85.136z M216.705,124.3c-12.044,0-21.841,9.796-21.841,21.839v123.598l-19.309,11.87
	l-11.702,0.945l-0.814-7.192c2.864-0.376,5.472-1.861,7.237-4.161c1.858-2.419,2.619-5.506,2.095-8.512
	c-0.549-3.156-1.21-6.952-1.861-10.694c0.064-0.201,1.072-3.325,2.378-7.38c1.257-3.906,0.676-8.176-1.582-11.605
	c-2.258-3.428-5.951-5.645-10.037-6.03c-2.786-0.263-5.632-0.531-8.244-0.778c-7.058-0.664-14.006,2.13-18.633,7.501
	c0,0,0,0.001,0,0.002c-0.505,0.586-0.785,0.909-0.824,0.954c-0.046,0.04-1.738,1.505-3.527,3.05
	c-2.685,2.319-4.356,5.599-4.654,9.134c-0.225,2.66-0.508,6.023-0.782,9.264c-0.611,7.242-3.409,14.13-8.02,19.75
	c-0.343,0.418-0.672,0.847-0.987,1.285c-0.506,0.705-1.401,1.952-2.511,3.496c-3.08,4.286-3.748,9.624-2.221,14.346l-18.416,50.665
	c0,0-16.023,44.086-21.661,59.601c-1.252,3.446,0.538,7.284,3.985,8.537c2.405,0.874,5.194,1.888,7.391,2.687
	c2.644,0.961,5.598-0.356,6.655-2.961l1.556-3.841c1.093,1.934,3.564,2.646,5.513,1.572c1.964-1.081,2.686-3.578,1.605-5.541
	l-3.174-5.767l18.923-46.691l13.576-31.973l4.53,28.283l-4.606,14.722c0,0.001,0,0.003,0,0.004
	c-3.469,10.21-4.466,21.094-2.906,31.764l5.466,37.404c-5.948,3.561-10.579,9.045-13.139,15.575
	c-1.742-3.592-3.821-7.384-6.308-11.281c4.52-1.5,8.517-4.624,10.993-9.116c2.697-4.892,3.081-10.453,1.512-15.395
	c-0.136-0.426-0.542-0.713-0.99-0.696c-0.073,0.002-0.146,0.012-0.216,0.031c-5.019,1.311-9.514,4.605-12.21,9.497
	c-1.893,3.434-2.624,7.194-2.362,10.841c-1.299-1.81-2.676-3.631-4.171-5.454c-0.189-0.239-0.477-0.379-0.782-0.379h-0.001
	c-0.547,0-0.999,0.451-0.999,0.999c0,0.237,0.084,0.465,0.237,0.646c1.277,1.558,2.455,3.111,3.586,4.66
	c-3.041-1.452-6.49-2.151-10.084-1.844c-5.566,0.475-10.404,3.246-13.641,7.298c-0.331,0.413-0.279,1.02,0.117,1.371
	c3.878,3.443,9.115,5.351,14.681,4.876c5.048-0.431,9.481-2.762,12.681-6.21c2.515,3.946,4.603,7.784,6.345,11.41
	c-1.698-0.306-3.429-0.515-5.214-0.515c-17.048,0-30.959,13.594-31.49,30.516H50.719c-0.005,0-0.009,0-0.014,0
	c-0.548,0-0.999,0.45-0.999,0.999c0,0.547,0.45,0.999,0.999,0.999c0.005,0,0.009,0,0.014,0h76.548l-3.71,36.826
	c0,0-0.567,5.622-1.009,9.997c-0.336,3.336,2.116,6.336,5.452,6.672c5.329,0.537,13.666,1.378,19.024,1.918
	c3.293,0.332,6.238-2.027,6.703-5.273v-0.002c0.007-0.05,0.019-0.098,0.025-0.149c0.001-0.003,0.001-0.003,0.002-0.006
	c0.004-0.033,0.026-0.06,0.03-0.093c0-0.003,0-0.006,0-0.008c0-0.008-0.009-0.014-0.008-0.022v-0.002
	c0.071-0.796-0.17-1.592-0.691-2.2c-1.818-2.126-7.274-8.504-7.719-9.024l2.157-11.197c2.612,2.184,5.218,4.365,7.264,6.077
	c2.5,2.091,6.162,1.797,8.383-0.526c0.019-0.01,0.038-0.019,0.057-0.03c0.001,0,0.002-0.001,0.004-0.002
	c0.002-0.002,0.005-0.004,0.008-0.006c0,0,0.008-0.005,0.01-0.006c0.039-0.024,0.077-0.052,0.113-0.082
	c0.001-0.001,0.002-0.002,0.004-0.004s0.013-0.01,0.013-0.01c0.001,0,0.045-0.043,0.045-0.043c0.022-0.021,0.042-0.043,0.061-0.066
	c0.52-0.622,0.765-1.431,0.675-2.237c-0.312-2.781-1.245-11.125-1.321-11.805l18.739-18.697h13.287v6.195
	c0,12.043,9.797,21.84,21.84,21.84h193.21c6.271,0,12.287-2.492,16.723-6.928c4.435-4.435,6.927-10.45,6.927-16.722v-4.387h110.268
	c0.005,0,0.01,0,0.015,0c0.547,0,0.999-0.451,0.999-0.999c0-0.548-0.451-0.999-0.999-0.999c-0.005,0-0.01,0-0.015,0h-21.179
	c-0.53-16.921-14.44-30.516-31.489-30.516c-1.949,0-3.832,0.257-5.675,0.624c1.976-4.454,4.501-9.19,7.72-14.118
	c3.203,3.486,7.662,5.844,12.741,6.277c5.566,0.476,10.802-1.433,14.679-4.877c0.396-0.351,0.447-0.958,0.117-1.371
	c-3.237-4.051-8.073-6.821-13.639-7.297c-3.616-0.309-7.085,0.401-10.14,1.871c2.12-2.867,4.473-5.779,7.102-8.727
	c3.732,3.075,8.595,4.805,13.792,4.448c5.573-0.385,10.455-3.076,13.758-7.073c0.337-0.408,0.295-1.015-0.094-1.371
	c-3.82-3.508-9.026-5.503-14.599-5.119c-1.746,0.12-3.425,0.467-5.008,1.01c0.982-0.936,1.989-1.872,3.028-2.811
	c0.216-0.19,0.34-0.463,0.34-0.751c0-0.54-0.437-0.988-0.978-0.999c-0.26-0.005-0.51,0.091-0.7,0.267
	c-1.56,1.409-3.036,2.813-4.47,4.216c0.722-2.203,1.063-4.571,0.946-7.02c-0.266-5.58-2.854-10.517-6.781-13.905
	c-0.178-0.154-0.405-0.239-0.639-0.242c-0.277-0.003-0.542,0.108-0.734,0.308c-3.586,3.745-5.691,8.907-5.424,14.486
	c0.249,5.231,2.553,9.878,6.071,13.232c-2.862,3.209-5.407,6.381-7.683,9.498c0.251-3.63-0.48-7.37-2.364-10.786
	c-2.697-4.893-7.192-8.185-12.209-9.496c-0.097-0.025-0.197-0.037-0.297-0.033c-0.419,0.018-0.783,0.298-0.909,0.697
	c-1.571,4.942-1.188,10.502,1.509,15.395c2.46,4.463,6.424,7.577,10.909,9.088c-3.023,4.63-5.461,9.106-7.403,13.344
	c-4.721-11.45-15.942-19.533-29.072-19.533c-0.683,0-1.356,0.058-2.03,0.111c-0.181-1.533-0.905-9.549,2.552-21.854
	c0.456-1.623,0.992-3.318,1.606-5.068c3.717,2.869,8.466,4.436,13.507,4.036c5.569-0.441,10.422-3.182,13.684-7.213
	c0.333-0.411,0.285-1.019-0.109-1.371c-3.857-3.467-9.081-5.408-14.65-4.967c-3.862,0.307-7.365,1.737-10.248,3.919
	c2.036-4.746,4.704-9.831,8.168-15.135c3.203,3.486,7.659,5.844,12.738,6.277c5.567,0.476,10.803-1.433,14.681-4.876
	c0.395-0.352,0.446-0.957,0.117-1.369c-3.237-4.052-8.075-6.823-13.641-7.298c-3.613-0.31-7.079,0.401-10.133,1.869
	c2.12-2.865,4.47-5.778,7.099-8.725c3.731,3.075,8.592,4.804,13.787,4.446c5.574-0.384,10.455-3.074,13.759-7.071
	c0.338-0.408,0.296-1.016-0.094-1.373c-3.82-3.507-9.026-5.502-14.599-5.117c-1.735,0.119-3.403,0.462-4.976,0.999
	c0.977-0.932,1.961-1.865,2.996-2.8c0.216-0.19,0.34-0.463,0.34-0.751c0-0.54-0.437-0.988-0.978-0.999
	c-0.26-0.005-0.51,0.091-0.7,0.268c-1.561,1.409-3.038,2.816-4.472,4.219c0.722-2.204,1.065-4.573,0.948-7.024
	c-0.266-5.581-2.853-10.517-6.779-13.905c-0.179-0.154-0.406-0.24-0.641-0.242c-0.277-0.004-0.542,0.107-0.734,0.307
	c-3.586,3.745-5.691,8.907-5.424,14.487c0.25,5.231,2.554,9.878,6.075,13.233c-2.861,3.208-5.41,6.379-7.685,9.495
	c0.25-3.63-0.481-7.369-2.364-10.785c-0.001,0-0.001,0-0.002,0c-2.697-4.893-7.192-8.186-12.209-9.496
	c-0.097-0.025-0.197-0.036-0.297-0.031c-0.419,0.017-0.782,0.296-0.91,0.694c-1.569,4.942-1.185,10.502,1.512,15.395
	c0,0.001,0,0.001,0,0.002c2.461,4.465,6.425,7.579,10.913,9.088c-3.092,4.737-5.56,9.303-7.524,13.626
	c-0.212-2.93-1.062-5.858-2.657-8.552v-0.002c-2.847-4.807-7.444-7.96-12.499-9.116c-0.065-0.015-0.131-0.023-0.197-0.024
	c-0.454-0.011-0.861,0.289-0.986,0.726c-1.417,4.989-0.862,10.533,1.985,15.34c2.644,4.464,6.802,7.479,11.429,8.815
	c-0.68,1.913-1.264,3.759-1.762,5.528c-1.162,4.138-1.851,7.853-2.256,11.056c-2.803-8.812-9.387-15.938-17.836-19.498V201.199
	h53.232c0.548-0.001,0.999-0.451,0.999-0.999c0-8.581-6.987-15.565-15.567-15.565c-3.514,0-6.667,1.307-9.274,3.281
	c-4.47-8.657-13.464-14.607-23.862-14.607c-1.896,0-3.742,0.207-5.528,0.581v-25.943c0-6.271-2.492-12.285-6.927-16.72
	c-4.436-4.435-10.451-6.928-16.723-6.928h-26.479L216.705,124.3L216.705,124.3z M216.705,126.297h166.73
	c10.962,0,19.843,8.88,19.843,19.842v342.328c0,10.962-8.881,19.843-19.843,19.843h-166.73c-10.963,0-19.844-8.881-19.844-19.843
	V467.02l13.983-13.954v34.599c0,3.667,2.995,6.662,6.662,6.662h165.128c3.667,0,6.661-2.995,6.661-6.662V146.94
	c0-3.667-2.994-6.66-6.661-6.66h-34.937c-0.548,0-0.999,0.451-0.999,0.999c0,8.532-6.895,15.427-15.424,15.427h-62.407
	c-8.531,0-15.424-6.896-15.424-15.427c0-0.547-0.451-0.999-0.999-0.999h-34.939c-3.667,0-6.662,2.993-6.662,6.66v112.971
	l-13.983,8.597V146.139C196.862,135.178,205.743,126.297,216.705,126.297L216.705,126.297z M392.544,126.297h17.372
	c5.742,0,11.248,2.281,15.309,6.342c4.061,4.061,6.342,9.565,6.342,15.307v333.16c-0.018,0.107-0.018,0.216,0,0.324v5.228
	c0,5.742-2.281,11.249-6.342,15.309c-4.061,4.061-9.567,6.342-15.309,6.342h-17.372c7.507-3.459,12.732-11.05,12.732-19.843V146.139
	C405.276,137.346,400.05,129.756,392.544,126.297L392.544,126.297z M276.57,140.28c-1.954,0-3.56,1.606-3.56,3.561v0.002
	c0,1.954,1.606,3.558,3.56,3.558h47.776c1.955,0,3.561-1.604,3.561-3.558v-0.002c0-1.955-1.606-3.561-3.561-3.561H276.57
	L276.57,140.28z M217.506,142.278h34.041c0.529,9.138,8.052,16.426,17.321,16.426h62.407c9.268,0,16.792-7.287,17.32-16.426h34.04
	c2.587,0,4.663,2.075,4.663,4.662v340.725c0,2.588-2.076,4.664-4.663,4.664H217.506c-2.587,0-4.664-2.076-4.664-4.664v-36.592
	l1.651-1.646c0.63-0.531,1.224-1.12,1.769-1.772c3.819-4.566,4.308-10.833,1.713-15.817l-5.133-14.186V286.209l14.23-9.822v5.297
	c0,2.947,2.411,5.36,5.358,5.36h34.889c2.948,0,5.361-2.413,5.361-5.36v-34.89c0-2.947-2.413-5.358-5.361-5.358h-24.723
	c1.271-6.941,1.849-10.088,3.33-18.172h21.393c2.948,0,5.361-2.411,5.361-5.358v-34.89c0-2.947-2.413-5.36-5.361-5.36H232.43
	c-2.948,0-5.358,2.413-5.358,5.36v16.717c-1.055-0.137-2.159,0.126-3.051,0.835c-1.756,1.392-2.055,3.975-0.661,5.731l4.09,5.158
	l-9.788,44.264l-4.819,2.963V146.94C212.842,144.353,214.92,142.278,217.506,142.278L217.506,142.278z M276.57,142.278h47.776
	c0.875,0,1.563,0.688,1.563,1.563v0.002c0,0.874-0.688,1.56-1.563,1.56H276.57c-0.874,0-1.562-0.686-1.562-1.56v-0.002
	C275.008,142.966,275.696,142.278,276.57,142.278L276.57,142.278z M144.402,152.249c-0.547,0.008-0.991,0.465-0.983,1.012v7.355
	c0,0.004,0,0.009,0,0.014c0,0.547,0.45,0.999,0.999,0.999c0.547,0,0.999-0.451,0.999-0.999c0-0.005,0-0.01,0-0.014v-7.355
	c0-0.004,0-0.009,0-0.013c0-0.548-0.451-0.999-0.999-0.999C144.412,152.249,144.407,152.249,144.402,152.249z M131.803,157.474
	c-0.548,0-0.999,0.451-0.999,0.999c0,0.27,0.109,0.528,0.303,0.716l5.201,5.201c0.187,0.187,0.441,0.293,0.706,0.293
	c0.547,0,0.999-0.451,0.999-1c0-0.266-0.106-0.519-0.293-0.707l-5.201-5.199C132.33,157.583,132.072,157.474,131.803,157.474z
	 M157.004,157.474c-0.259,0.008-0.505,0.117-0.686,0.303l-5.201,5.199c-0.188,0.188-0.294,0.441-0.294,0.707c0,0.548,0.451,1,1,1
	c0.265,0,0.518-0.106,0.706-0.293l5.201-5.201c0.193-0.188,0.303-0.446,0.303-0.716c0-0.548-0.451-0.999-0.999-0.999
	C157.024,157.474,157.014,157.474,157.004,157.474z M126.592,170.09c-0.005,0-0.009,0-0.014,0c-0.548,0-0.999,0.45-0.999,0.999
	s0.45,0.999,0.999,0.999c0.005,0,0.009,0,0.014,0h7.352c0.005,0,0.01,0,0.014,0c0.548,0,1-0.45,1-0.999s-0.451-0.999-1-0.999
	c-0.004,0-0.009,0-0.014,0H126.592z M154.89,170.09c-0.005,0-0.009,0-0.014,0c-0.548,0-0.999,0.45-0.999,0.999
	s0.45,0.999,0.999,0.999c0.005,0,0.009,0,0.014,0h7.354c0.005,0,0.01,0,0.014,0c0.548,0,1-0.45,1-0.999s-0.451-0.999-1-0.999
	c-0.004,0-0.009,0-0.014,0H154.89z M439.093,175.307c10.002,0,18.624,5.906,22.582,14.409c0.164,0.352,0.518,0.577,0.906,0.577
	c0.244,0,0.48-0.089,0.663-0.251c2.393-2.124,5.533-3.41,8.985-3.41c7.157,0,12.95,5.545,13.47,12.569h-52.134v-23.265
	C435.343,175.533,437.19,175.307,439.093,175.307L439.093,175.307z M136.993,177.485c-0.26,0.008-0.505,0.117-0.686,0.303
	l-5.201,5.199c-0.197,0.189-0.308,0.448-0.308,0.72c0,0.548,0.451,1,0.999,1c0.272,0,0.532-0.111,0.721-0.308l5.201-5.199
	c0.193-0.188,0.303-0.446,0.303-0.716c0-0.548-0.451-0.999-0.999-0.999C137.013,177.485,137.003,177.485,136.993,177.485z
	 M151.813,177.485c-0.548,0-0.999,0.451-0.999,0.999c0,0.27,0.109,0.528,0.303,0.716l5.201,5.199
	c0.188,0.197,0.448,0.308,0.72,0.308c0.548,0,0.999-0.451,0.999-1c0-0.272-0.111-0.531-0.307-0.72l-5.201-5.199
	C152.342,177.595,152.083,177.485,151.813,177.485L151.813,177.485z M282.627,177.655c-2.948,0-5.361,2.413-5.361,5.36v34.89
	c0,2.947,2.414,5.358,5.361,5.358h34.889c2.947,0,5.358-2.411,5.358-5.358v-34.89c0-2.947-2.411-5.36-5.358-5.36L282.627,177.655
	L282.627,177.655z M332.821,177.655c-2.947,0-5.36,2.413-5.36,5.36v34.89c0,2.947,2.413,5.358,5.36,5.358h34.89
	c2.947,0,5.36-2.411,5.36-5.358v-34.89c0-2.947-2.413-5.36-5.36-5.36L332.821,177.655L332.821,177.655z M232.43,179.652h34.889
	c1.867,0,3.364,1.497,3.364,3.363v34.89c0,1.867-1.497,3.361-3.364,3.361h-21.026c1.526-8.331,2.571-14.033,3.476-18.971
	c0,0,0-0.001,0-0.002c0.66-3.607-1.746-7.091-5.352-7.753c-2.517-0.461-5.434-0.995-7.735-1.416
	c-2.767-0.505-5.46,1.281-6.068,4.027l-0.895,4.046c-0.195-0.24-0.415-0.445-0.649-0.628v-17.554
	C229.069,181.149,230.564,179.652,232.43,179.652L232.43,179.652L232.43,179.652z M282.627,179.652h34.889
	c1.866,0,3.361,1.497,3.361,3.363v34.89c0,1.867-1.495,3.361-3.361,3.361h-34.889c-1.867,0-3.364-1.494-3.364-3.361v-34.89
	C279.263,181.15,280.76,179.652,282.627,179.652L282.627,179.652z M332.821,179.652h34.89c1.867,0,3.363,1.497,3.363,3.363v34.89
	c0,1.867-1.496,3.361-3.363,3.361h-34.89c-1.866,0-3.363-1.494-3.363-3.361v-34.89C329.458,181.15,330.955,179.652,332.821,179.652
	L332.821,179.652z M144.402,180.548c-0.547,0.008-0.991,0.465-0.983,1.012v7.355c0,0.004,0,0.009,0,0.014
	c0,0.547,0.45,0.999,0.999,0.999c0.547,0,0.999-0.451,0.999-0.999c0-0.005,0-0.01,0-0.014v-7.355c0-0.004,0-0.009,0-0.013
	c0-0.548-0.451-0.999-0.999-0.999C144.412,180.548,144.407,180.548,144.402,180.548z M419.429,189.634
	c-3.479,0-6.32,2.843-6.32,6.321v28.724c0,3.479,2.842,6.32,6.32,6.32h0.002c3.48,0,6.32-2.842,6.32-6.32v-28.724
	c0-3.479-2.841-6.321-6.32-6.321H419.429z M504.238,190.682c-5.239,0-9.512,4.273-9.517,9.518c0,0.547,0.451,0.998,0.999,0.999
	h17.038c0.547-0.001,0.999-0.451,0.999-0.999C513.756,194.957,509.48,190.682,504.238,190.682L504.238,190.682z M419.429,191.632
	h0.002c2.4,0,4.323,1.925,4.323,4.324v28.724c0,2.399-1.923,4.323-4.323,4.323h-0.002c-2.399,0-4.323-1.924-4.323-4.323v-28.724
	C415.106,193.557,417.03,191.632,419.429,191.632z M504.238,192.68c3.806,0,6.813,2.857,7.32,6.522h-14.639
	C497.429,195.534,500.434,192.68,504.238,192.68L504.238,192.68z M235.68,195.035c0.211-0.003,0.425,0.015,0.641,0.054
	c2.3,0.421,5.219,0.957,7.735,1.418c2.546,0.466,4.212,2.881,3.745,5.427c-2.974,16.236-11.427,62.377-11.427,62.377
	c-0.451,2.468-1.859,4.509-3.77,5.829c-0.018,0.012-0.035,0.024-0.051,0.037l-3.272,2.257l-9.675-16.256l9.898-44.754
	c0.065-0.294-0.006-0.601-0.193-0.837l-4.386-5.53c-0.001,0-0.001,0-0.002,0c-0.721-0.909-0.571-2.205,0.338-2.926
	c0.909-0.721,2.205-0.571,2.926,0.338l1.273,1.603c0.19,0.239,0.478,0.379,0.783,0.379c0.466,0,0.873-0.327,0.975-0.782l1.345-6.087
	C232.897,196.08,234.2,195.055,235.68,195.035L235.68,195.035z M150.442,228.108c0.795-0.021,1.595,0.004,2.397,0.08
	c2.612,0.247,5.458,0.515,8.244,0.778c3.485,0.329,6.631,2.219,8.557,5.143c1.926,2.923,2.421,6.56,1.347,9.892
	c-0.665,2.066-0.768,2.385-1.212,3.761c-0.167-0.963-0.359-2.065-0.51-2.938c-0.764-4.389-4.872-7.413-9.29-6.837
	c-2.415,0.315-4.527,0.588-4.527,0.588c-0.495,0.065-0.87,0.491-0.87,0.991c0,0.059,0.005,0.117,0.015,0.174
	c0.788,4.44-0.116,8.59-3.745,12.726c-0.134,0.153-0.219,0.344-0.242,0.546c-3.8,24.734-7.794,40.372-14.826,47.278
	c-5.291,4.964-13.462,5.105-18.918,0.321c-5.458-4.786-6.388-12.914-2.151-18.809c1.11-1.544,2.006-2.791,2.512-3.496
	c0.291-0.405,0.592-0.799,0.907-1.183c0.001,0,0.002,0,0.002,0c4.868-5.932,7.819-13.202,8.465-20.848
	c0.274-3.241,0.559-6.606,0.784-9.266c0.255-3.015,1.678-5.812,3.968-7.79c1.813-1.566,3.578-3.092,3.578-3.092
	c0.037-0.032,0.071-0.066,0.103-0.103c0,0,0.34-0.393,0.878-1.019C139.588,230.734,144.879,228.255,150.442,228.108L150.442,228.108
	L150.442,228.108z M419.429,235.349c-3.479,0-6.32,2.84-6.32,6.318v28.727c0,3.479,2.842,6.32,6.32,6.32h0.002
	c3.48,0,6.32-2.842,6.32-6.32v-28.727c0-3.479-2.841-6.318-6.32-6.318L419.429,235.349L419.429,235.349z M419.429,237.346h0.002
	c2.4,0,4.323,1.921,4.323,4.321v28.727c0,2.4-1.923,4.323-4.323,4.323h-0.002c-2.399,0-4.323-1.923-4.323-4.323v-28.727
	C415.106,239.267,417.03,237.346,419.429,237.346L419.429,237.346z M160.864,239.915c3.125-0.1,5.885,2.103,6.432,5.25
	c0.923,5.308,2.19,12.592,3.107,17.863c0.427,2.456-0.193,4.978-1.711,6.955c-1.517,1.977-3.792,3.227-6.275,3.449
	c-6.531,0.582-8.42,0.367-8.42,0.367c-0.035-0.004-0.071-0.006-0.107-0.006c-0.548,0-1,0.451-1,1c0,0.508,0.388,0.94,0.893,0.994
	c0,0,1.992,0.155,7.266-0.252l0.811,7.179l-15.488,1.25c2.383-7.988,4.274-18.106,6.168-30.409c3.535-4.141,4.633-8.622,4.095-13.12
	c0.629-0.082,1.68-0.219,3.6-0.468C160.446,239.938,160.657,239.922,160.864,239.915L160.864,239.915L160.864,239.915z
	 M282.627,241.435c-2.947,0-5.361,2.411-5.361,5.358v34.89c0,2.947,2.414,5.36,5.361,5.36h34.889c2.947,0,5.358-2.413,5.358-5.36
	v-34.89c0-2.947-2.411-5.358-5.358-5.358H282.627z M332.821,241.435c-2.947,0-5.36,2.411-5.36,5.358v34.89
	c0,2.947,2.413,5.36,5.36,5.36h34.89c2.947,0,5.36-2.413,5.36-5.36v-34.89c0-2.947-2.413-5.358-5.36-5.358H332.821z M242.23,243.433
	h25.088c1.867,0,3.364,1.494,3.364,3.361v34.89c0,1.866-1.497,3.363-3.364,3.363H232.43c-1.867,0-3.361-1.497-3.361-3.363v-6.674
	l0.467-0.324l4.202-2.901c0.106-0.073,0.197-0.166,0.268-0.273c2.171-1.612,3.808-3.976,4.333-6.842
	C238.339,264.67,240.82,251.129,242.23,243.433L242.23,243.433z M282.627,243.433h34.889c1.866,0,3.361,1.494,3.361,3.361v34.89
	c0,1.866-1.495,3.363-3.361,3.363h-34.889c-1.867,0-3.364-1.497-3.364-3.363v-34.89C279.263,244.927,280.76,243.433,282.627,243.433
	z M332.821,243.433h34.89c1.867,0,3.363,1.494,3.363,3.361v34.89c0,1.866-1.496,3.363-3.363,3.363h-34.89
	c-1.866,0-3.363-1.497-3.363-3.363v-34.89C329.458,244.927,330.955,243.433,332.821,243.433z M218.206,257.732l9.43,15.84
	l-40.185,27.742c-4.789,3.305-11.335,2.104-14.641-2.685c-3.305-4.788-2.104-11.332,2.685-14.638
	c0.312-0.215,0.633-0.413,0.96-0.591c0.015-0.008,0.03-0.018,0.045-0.027L218.206,257.732z M473.048,261.835
	c-0.547,0.008-0.991,0.464-0.983,1.012v7.354c0,0.005-0.001,0.01-0.001,0.015c0,0.547,0.451,0.999,1,0.999
	c0.547,0,0.999-0.451,0.999-0.999c0-0.005,0-0.01,0-0.015v-7.354c0-0.004,0-0.009,0-0.014c0-0.547-0.451-0.999-0.999-0.999
	C473.058,261.834,473.053,261.834,473.048,261.835z M460.448,267.058c-0.547,0.001-0.997,0.451-0.997,0.999
	c0,0.27,0.109,0.528,0.302,0.716l5.199,5.201c0.189,0.196,0.449,0.307,0.721,0.307c0.548,0,0.999-0.45,0.999-0.999
	c0-0.272-0.111-0.532-0.307-0.72l-5.2-5.201C460.977,267.167,460.718,267.057,460.448,267.058z M485.649,267.058
	c-0.26,0.008-0.505,0.116-0.686,0.303l-5.199,5.201c-0.197,0.188-0.308,0.448-0.308,0.72c0,0.548,0.451,0.999,0.999,0.999
	c0.272,0,0.532-0.111,0.721-0.307l5.199-5.201c0.193-0.188,0.303-0.446,0.303-0.716c0-0.548-0.451-0.999-0.999-0.999
	C485.669,267.058,485.659,267.058,485.649,267.058L485.649,267.058z M455.237,279.674c-0.005,0-0.01,0-0.014,0
	c-0.548,0-0.999,0.45-0.999,0.999c0,0.547,0.45,0.999,0.999,0.999c0.004,0,0.009,0,0.014,0h7.354c0.005,0,0.01,0,0.014,0
	c0.548,0,0.999-0.451,0.999-0.999c0-0.548-0.45-0.999-0.999-0.999c-0.004,0-0.009,0-0.014,0H455.237z M483.537,279.674
	c-0.005,0-0.01,0-0.014,0c-0.548,0-0.999,0.45-0.999,0.999c0,0.547,0.45,0.999,0.999,0.999c0.004,0,0.009,0,0.014,0h7.352
	c0.005,0,0.01,0,0.014,0c0.548,0,0.999-0.451,0.999-0.999c0-0.548-0.45-0.999-0.999-0.999c-0.004,0-0.009,0-0.014,0H483.537z
	 M172.571,283.854c-4.145,4.193-4.874,10.887-1.406,15.911c2.569,3.721,6.813,5.604,11.032,5.366l7.426,53.507l-60.529,4.819
	l4.235-13.537c0.046-0.147,0.057-0.303,0.033-0.454l-6.949-43.371c3.875-0.064,7.727-1.52,10.743-4.354
	c0.005-0.006,0.011-0.011,0.016-0.016c3.563-3.494,6.281-8.721,8.552-15.704L172.571,283.854L172.571,283.854z M465.639,287.069
	c-0.26,0.008-0.505,0.117-0.687,0.303l-5.199,5.201c-0.196,0.188-0.307,0.448-0.307,0.72c0,0.548,0.45,0.999,0.999,0.999
	c0.272,0,0.532-0.111,0.72-0.307l5.2-5.201c0.193-0.188,0.303-0.446,0.303-0.716c0-0.548-0.451-0.999-1-0.999
	C465.659,287.069,465.649,287.069,465.639,287.069L465.639,287.069z M480.459,287.069c-0.547,0.001-0.997,0.451-0.997,0.999
	c0,0.27,0.109,0.528,0.303,0.716l5.199,5.201c0.188,0.196,0.448,0.307,0.72,0.307c0.548,0,0.999-0.45,0.999-0.999
	c0-0.272-0.111-0.532-0.307-0.72l-5.199-5.201C480.988,287.178,480.728,287.069,480.459,287.069L480.459,287.069z M210.845,287.588
	v124.544l-13.983-38.646V297.24L210.845,287.588z M473.048,290.132c-0.547,0.008-0.991,0.464-0.983,1.012v7.354
	c0,0.005-0.001,0.01-0.001,0.015c0,0.547,0.451,0.999,1,0.999c0.547,0,0.999-0.451,0.999-0.999c0-0.005,0-0.01,0-0.015v-7.354
	c0-0.004,0-0.009,0-0.013c0-0.548-0.451-1-0.999-1C473.058,290.131,473.053,290.131,473.048,290.132z M112.016,297.669
	c0.885,1.639,2.056,3.151,3.529,4.443c2.56,2.244,5.654,3.522,8.827,3.872l1.856,11.572l-14.457,34.048l-17.098-6.212
	C94.672,345.391,112.016,297.669,112.016,297.669z M194.864,298.62v69.345l-3.13-8.653l-7.558-54.444
	c1.537-0.338,3.035-0.965,4.407-1.912L194.864,298.62z M232.43,305.213c-2.947,0-5.358,2.411-5.358,5.358v34.89
	c0,2.947,2.41,5.361,5.358,5.361h34.889c2.948,0,5.361-2.413,5.361-5.361v-34.89c0-2.947-2.413-5.358-5.361-5.358H232.43z
	 M282.627,305.213c-2.947,0-5.361,2.411-5.361,5.358v34.89c0,2.947,2.413,5.361,5.361,5.361h34.889c2.947,0,5.358-2.413,5.358-5.361
	v-34.89c0-2.947-2.411-5.358-5.358-5.358H282.627z M332.821,305.213c-2.947,0-5.36,2.411-5.36,5.358v34.89
	c0,2.947,2.413,5.361,5.36,5.361h34.89c2.947,0,5.36-2.413,5.36-5.361v-34.89c0-2.947-2.413-5.358-5.36-5.358H332.821z
	 M232.43,307.21h34.889c1.867,0,3.364,1.494,3.364,3.361v34.89c0,1.867-1.497,3.363-3.364,3.363H232.43
	c-1.867,0-3.361-1.496-3.361-3.363v-34.89C229.069,308.705,230.564,307.21,232.43,307.21z M282.627,307.21h34.889
	c1.866,0,3.361,1.495,3.361,3.361v34.89c0,1.867-1.495,3.363-3.361,3.363h-34.889c-1.867,0-3.364-1.496-3.364-3.363v-34.89
	C279.263,308.705,280.76,307.21,282.627,307.21z M332.821,307.21h34.89c1.867,0,3.363,1.495,3.363,3.361v34.89
	c0,1.867-1.496,3.363-3.363,3.363h-34.89c-1.866,0-3.363-1.496-3.363-3.363v-34.89C329.458,308.706,330.955,307.21,332.821,307.21z
	 M477.053,340.489c3.09,3.002,5.143,7.081,5.364,11.726c0.221,4.643-1.433,8.899-4.224,12.182c-3.09-3.003-5.142-7.083-5.365-11.726
	C472.608,348.027,474.262,343.772,477.053,340.489z M93.989,347.268l17.017,6.184l-18.714,46.171
	c-0.113,0.278-0.094,0.593,0.051,0.856l3.404,6.183c0.559,1.017,0.198,2.269-0.819,2.829c-1.016,0.559-2.269,0.198-2.829-0.819
	l-0.987-1.795c-0.176-0.319-0.511-0.517-0.876-0.517c-0.406,0-0.772,0.248-0.925,0.623l-2.341,5.778c-0.001,0-0.001,0-0.002,0
	c-0.66,1.629-2.466,2.432-4.118,1.832c-2.198-0.799-4.986-1.813-7.391-2.687c-2.432-0.884-3.674-3.544-2.79-5.975
	C78.219,390.661,93.499,348.616,93.989,347.268L93.989,347.268z M455.128,357.51c4.097,1.334,7.738,4.093,9.982,8.164
	c2.243,4.072,2.633,8.621,1.574,12.797c-4.098-1.334-7.738-4.093-9.982-8.164h0.002C454.46,366.236,454.07,361.687,455.128,357.51
	L455.128,357.51z M493.115,360.166c3.973,0.122,7.622,1.618,10.545,3.999c-2.936,3.153-6.971,5.291-11.609,5.61
	c-4.636,0.32-8.927-1.242-12.268-3.962c0.012-0.013,0.023-0.026,0.035-0.039c2.934-3.133,6.955-5.258,11.574-5.575
	C491.973,360.159,492.547,360.148,493.115,360.166L493.115,360.166L493.115,360.166z M190.077,360.606l26.033,71.951
	c0.016,0.044,0.035,0.086,0.057,0.127c2.274,4.296,1.88,9.724-1.436,13.688c-0.487,0.583-1.018,1.109-1.582,1.578
	c-0.023,0.019-0.045,0.04-0.066,0.061l-51.349,51.239l-13.754-11.506l41.76-49.927c0.272-0.326,0.308-0.791,0.089-1.156
	l-29.282-48.724c-2.494-4.15-3.938-8.844-4.21-13.678v-0.002c-0.282-5.023-0.559-9.995-0.61-10.917L190.077,360.606L190.077,360.606
	z M153.733,363.5c0.054,0.959,0.331,5.869,0.61,10.871c0.29,5.159,1.832,10.169,4.493,14.598l3.732,6.208l-4.85,50.072
	c-0.003,0.032-0.004,0.064-0.004,0.096c0,0.411-0.02,0.825-0.062,1.242c0,0.001,0,0.001,0,0.002
	c-0.076,0.756-0.221,1.487-0.423,2.192c-0.009,0.029-0.016,0.059-0.022,0.088l-6.187,32.127l-5.187,6.199
	c-0.01,0.01-0.019,0.021-0.028,0.031v0.002c-0.001,0.001-3.626,4.335-6.447,7.708c-2.151,2.572-1.808,6.429,0.765,8.582
	c1.582,1.323,3.643,3.046,5.649,4.725l-2.286,11.859l-17.841-1.799l3.702-36.762c0.03-0.108,0.042-0.221,0.035-0.334l3.629-36.026
	c0.008-0.082,0.006-0.165-0.006-0.246l-7.189-49.184c-1.483-10.151-0.579-20.501,2.628-30.239L153.733,363.5z M479.544,376.11
	c0.567-0.008,1.142,0.01,1.721,0.06c4.631,0.396,8.63,2.601,11.515,5.802c-3.386,2.665-7.701,4.159-12.333,3.762
	c-4.631-0.396-8.63-2.6-11.515-5.801C471.894,377.6,475.569,376.165,479.544,376.11L479.544,376.11L479.544,376.11z
	 M443.739,378.601c4.137,1.208,7.859,3.851,10.228,7.851c2.37,4,2.899,8.537,1.969,12.745c-4.136-1.208-7.858-3.852-10.228-7.852
	v-0.002C443.34,387.343,442.809,382.807,443.739,378.601L443.739,378.601z M471.497,394.602c3.975,0.082,7.641,1.54,10.589,3.89
	c-2.904,3.183-6.917,5.363-11.551,5.731c-4.634,0.368-8.941-1.153-12.311-3.839c2.904-3.184,6.919-5.363,11.553-5.731
	C470.356,394.607,470.929,394.59,471.497,394.602L471.497,394.602L471.497,394.602z M502.723,395.304
	c3.091,3.003,5.145,7.082,5.366,11.727c0.222,4.644-1.432,8.9-4.224,12.184c-3.09-3.003-5.143-7.083-5.364-11.728
	C498.28,402.844,499.932,398.587,502.723,395.304L502.723,395.304z M164.296,398.051l8.607,14.325
	c-1.032-0.135-2.08-0.213-3.148-0.213c-2.407,0-4.728,0.37-6.926,1.027L164.296,398.051z M433.565,400.443
	c10.194,4.646,17.303,14.907,17.311,26.842l-0.102,2.015c-1.709,0.283-5.697,1.255-8.57,4.484c-0.163,0.183-0.253,0.42-0.253,0.664
	c0,0.548,0.45,0.999,0.999,0.999c0.285,0,0.557-0.122,0.746-0.335c3.082-3.464,8.1-3.937,8.111-3.939
	c0.013-0.001,0.026-0.002,0.039-0.004c0.014-0.002,0.028-0.002,0.041-0.004c0.008,0,0.016-0.001,0.024-0.002
	c1.03-0.119,2.079-0.177,3.146-0.177c12.941,0,23.913,8.348,27.894,19.939c-1.713,0.582-5.18,2.064-7.7,5.177
	c-0.145,0.178-0.223,0.401-0.223,0.629c0,0.548,0.45,1,0.999,1c0.302,0,0.587-0.137,0.777-0.371
	c2.928-3.618,7.587-4.792,7.645-4.807c0.009-0.001,0.018-0.003,0.027-0.006c2.129-0.524,4.376-0.792,6.688-0.792
	c15.967,0,28.964,12.68,29.491,28.518h-87.091L433.565,400.443L433.565,400.443z M480.8,412.326
	c4.097,1.334,7.738,4.092,9.982,8.164c2.244,4.071,2.632,8.622,1.572,12.799c-4.097-1.335-7.736-4.093-9.98-8.164
	C480.13,421.054,479.74,416.503,480.8,412.326z M169.755,414.16c1.544,0,3.048,0.167,4.503,0.466l13.495,22.455l-34.089,40.753
	l5.506-28.586c0.224-0.792,0.386-1.613,0.47-2.46l-0.002,0.002c0.046-0.453,0.065-0.903,0.068-1.349l0.002-0.022l2.912-30.064
	C164.86,414.592,167.255,414.16,169.755,414.16L169.755,414.16L169.755,414.16z M120.677,414.858
	c1.06,4.178,0.67,8.728-1.574,12.799c-2.244,4.072-5.885,6.83-9.982,8.164c-1.06-4.177-0.67-8.727,1.574-12.799
	C112.939,418.951,116.579,416.194,120.677,414.858z M518.785,414.983c3.975,0.123,7.625,1.617,10.549,3.999
	c-2.936,3.154-6.973,5.292-11.611,5.611c-4.638,0.319-8.928-1.246-12.27-3.966c2.937-3.153,6.972-5.291,11.609-5.61
	C517.642,414.977,518.217,414.966,518.785,414.983z M232.43,428.673c-2.947,0-5.358,2.413-5.358,5.36v34.889
	c0,2.947,2.411,5.359,5.358,5.359h34.889c2.948,0,5.361-2.412,5.361-5.359v-34.889c0-2.947-2.413-5.36-5.361-5.36H232.43z
	 M282.627,428.673c-2.947,0-5.361,2.413-5.361,5.36v34.889c0,2.947,2.414,5.359,5.361,5.359h34.889c2.947,0,5.358-2.411,5.358-5.359
	v-34.889c0-2.948-2.411-5.36-5.358-5.36H282.627z M332.821,428.673c-2.947,0-5.36,2.412-5.36,5.36v34.889
	c0,2.948,2.413,5.359,5.36,5.359h34.89c2.947,0,5.36-2.411,5.36-5.359v-34.889c0-2.948-2.413-5.36-5.36-5.36H332.821z
	 M232.43,430.67h34.889c1.867,0,3.364,1.496,3.364,3.363v34.889c0,1.867-1.497,3.362-3.364,3.362H232.43
	c-1.867,0-3.361-1.495-3.361-3.362v-34.889C229.069,432.166,230.564,430.67,232.43,430.67z M282.627,430.67h34.889
	c1.866,0,3.361,1.496,3.361,3.363v34.889c0,1.867-1.495,3.362-3.361,3.362h-34.889c-1.867,0-3.364-1.495-3.364-3.362v-34.889
	C279.263,432.166,280.761,430.67,282.627,430.67z M332.821,430.67h34.89c1.867,0,3.363,1.496,3.363,3.363v34.889
	c0,1.867-1.496,3.362-3.363,3.362h-34.89c-1.866,0-3.363-1.495-3.363-3.362v-34.889C329.458,432.166,330.955,430.67,332.821,430.67z
	 M505.216,430.925c0.568-0.008,1.142,0.011,1.721,0.061c4.631,0.397,8.631,2.6,11.515,5.801c-3.386,2.666-7.701,4.16-12.333,3.763
	c-4.631-0.396-8.633-2.598-11.517-5.8C497.564,432.418,501.239,430.983,505.216,430.925L505.216,430.925L505.216,430.925z
	 M96.262,433.459c3.975,0.057,7.649,1.491,10.612,3.824c-2.884,3.201-6.884,5.404-11.515,5.801
	c-4.634,0.396-8.949-1.099-12.335-3.764c2.884-3.202,6.886-5.404,11.517-5.8C95.12,433.47,95.694,433.451,96.262,433.459
	L96.262,433.459z M129.619,435.589l1.391,9.514l-3.543,35.17h-47.62c0.527-15.839,13.525-28.518,29.492-28.518
	c2.254,0,4.444,0.257,6.552,0.735c0.084,0.035,0.172,0.058,0.262,0.069c0.404,0.12,3.972,1.236,6.423,4.094
	c0.19,0.227,0.47,0.358,0.766,0.358c0.548,0,0.999-0.45,0.999-0.999c0-0.243-0.088-0.477-0.249-0.66
	c-2.198-2.563-5.077-3.877-6.566-4.432C119.717,444.546,124.027,439.152,129.619,435.589L129.619,435.589L129.619,435.589z
	 M194.864,469.012v11.262H183.58L194.864,469.012z M146.697,489.278l14.149,11.836c0.064,0.575,1.016,9.082,1.328,11.88
	c0.03,0.265-0.05,0.531-0.221,0.736c0,0-0.001,0.001-0.002,0.002c-1.486,1.778-4.104,2.009-5.881,0.522
	c-4.131-3.455-10.559-8.83-14.666-12.266c-1.745-1.46-1.972-4.025-0.513-5.769C143.432,493.181,146.086,490.008,146.697,489.278
	L146.697,489.278L146.697,489.278z M125.445,520.291l18.353,1.85c0.375,0.438,5.939,6.945,7.77,9.086c0,0.001,0,0.002,0,0.002
	c0.173,0.203,0.257,0.466,0.23,0.73c-0.003,0.03-0.005,0.061-0.006,0.091l0.004-0.087c-0.232,2.305-2.265,3.966-4.572,3.733
	c-5.357-0.539-13.695-1.378-19.024-1.916c-2.261-0.228-3.891-2.223-3.664-4.485C124.933,525.355,125.35,521.236,125.445,520.291
	L125.445,520.291L125.445,520.291z"></path>
</svg>