<svg width="24" height="24" viewBox="0 0 24 24" fill="none" xmlns="http://www.w3.org/2000/svg">
<g id="tabler-icon-history">
<path id="Vector" d="M11.9998 8V12L13.9998 14M3.0498 10.9999C3.2739 8.8 4.30007 6.75956 5.93254 5.26791C7.56501 3.77627 9.6895 2.93783 11.9007 2.91257C14.1119 2.88732 16.255 3.67701 17.9211 5.13098C19.5872 6.58495 20.6597 8.60142 20.934 10.7957C21.2083 12.9899 20.6651 15.2084 19.4082 17.0277C18.1512 18.8471 16.2684 20.14 14.1191 20.6598C11.9697 21.1796 9.70421 20.8899 7.7548 19.846C5.80539 18.8021 4.30853 17.077 3.5498 14.9999M3.0498 19.9999V14.9999H8.0498" stroke="black" stroke-width="2" stroke-linecap="round" stroke-linejoin="round"/>
</g>
</svg>
