<svg width="32" height="32" viewBox="0 0 32 32" fill="none" xmlns="http://www.w3.org/2000/svg">
<g id="tabler-icon-speakerphone">
<path id="Vector" d="M24 10.6666C25.0609 10.6666 26.0783 11.0881 26.8284 11.8382C27.5786 12.5883 28 13.6058 28 14.6666C28 15.7275 27.5786 16.7449 26.8284 17.4951C26.0783 18.2452 25.0609 18.6666 24 18.6666M13.3333 10.6666V25.3333C13.3333 25.6869 13.1929 26.0261 12.9428 26.2761C12.6928 26.5262 12.3536 26.6666 12 26.6666H10.6667C10.313 26.6666 9.97391 26.5262 9.72386 26.2761C9.47381 26.0261 9.33333 25.6869 9.33333 25.3333V18.6666M16 10.6666L22.032 5.63989C22.2073 5.4939 22.4205 5.40089 22.6468 5.37176C22.873 5.34263 23.1029 5.37859 23.3094 5.47542C23.5159 5.57225 23.6906 5.72595 23.8129 5.91849C23.9352 6.11103 24.0001 6.33445 24 6.56256V22.7706C24.0001 22.9987 23.9352 23.2221 23.8129 23.4146C23.6906 23.6072 23.5159 23.7609 23.3094 23.8577C23.1029 23.9545 22.873 23.9905 22.6468 23.9613C22.4205 23.9322 22.2073 23.8392 22.032 23.6932L16 18.6666H5.33333C4.97971 18.6666 4.64057 18.5261 4.39052 18.276C4.14048 18.026 4 17.6868 4 17.3332V11.9999C4 11.6463 4.14048 11.3071 4.39052 11.0571C4.64057 10.807 4.97971 10.6666 5.33333 10.6666H16Z" stroke="black" stroke-width="2" stroke-linecap="round" stroke-linejoin="round"/>
</g>
</svg>
