<svg width="512" height="512" viewBox="0 0 512 512" fill="none" xmlns="http://www.w3.org/2000/svg">
<g clip-path="url(#clip0_576_4548)">
<path d="M256 0C326.69 0 390.69 28.655 437.018 74.982C483.345 121.31 512 185.31 512 256C512 326.69 483.345 390.69 437.018 437.018C390.69 483.345 326.69 512 256 512C185.31 512 121.31 483.345 74.982 437.018C28.655 390.69 0 326.69 0 256C0 185.31 28.655 121.31 74.982 74.982C121.31 28.655 185.31 0 256 0ZM206.629 316.575C205.637 315.289 209.223 306.457 210.072 305.029C200.35 296.378 192.668 287.65 191.031 269.689L189.988 269.711C187.58 269.679 185.259 269.125 183.085 267.886C179.604 265.907 177.155 262.507 175.502 258.674C172.002 250.631 160.471 223.936 178.039 226.046C168.216 207.701 190.448 176.362 152.104 164.771C183.564 124.926 249.943 63.49 298.587 125.117C351.832 130.277 368.44 193.554 332.587 228.21C334.688 228.286 336.667 228.77 338.419 229.708C345.084 233.278 345.303 241.026 343.551 247.527C341.818 252.956 339.617 256.631 337.541 261.924C335.017 269.071 331.326 270.402 324.196 269.632C323.834 287.302 315.668 295.975 304.678 306.356L307.685 316.543C292.948 347.804 231.728 349.061 206.629 316.575ZM78.752 394.224C90.828 342.691 124.408 360.828 189.09 320.357C212.072 368.309 305.476 371.794 324.63 320.357C379.98 355.741 423.597 341.28 434.588 392.495C463.553 354.654 480.764 307.337 480.764 256C480.764 193.932 455.606 137.74 414.934 97.066C374.26 56.394 318.068 31.236 256 31.236C193.932 31.236 137.74 56.394 97.066 97.066C56.394 137.74 31.236 193.932 31.236 256C31.236 308.123 48.98 356.099 78.752 394.224Z" fill="#A7A9AE"/>
</g>
<defs>
<clipPath id="clip0_576_4548">
<rect width="512" height="512" fill="white"/>
</clipPath>
</defs>
</svg>
